<svg width="72" height="71" viewBox="0 0 72 71" fill="none" xmlns="http://www.w3.org/2000/svg">
<g filter="url(#filter0_d_8_378)">
<path d="M10 20C10 13.3726 15.3726 8 22 8H62V47C62 53.6274 56.6274 59 50 59H22C15.3726 59 10 53.6274 10 47V20Z" fill="#623CE7" shape-rendering="crispEdges"/>
<path d="M42.9999 34.6666H37.1666V40.5C37.1666 41.1416 36.6416 41.6666 35.9999 41.6666C35.3583 41.6666 34.8333 41.1416 34.8333 40.5V34.6666H28.9999C28.3583 34.6666 27.8333 34.1416 27.8333 33.5C27.8333 32.8583 28.3583 32.3333 28.9999 32.3333H34.8333V26.5C34.8333 25.8583 35.3583 25.3333 35.9999 25.3333C36.6416 25.3333 37.1666 25.8583 37.1666 26.5V32.3333H42.9999C43.6416 32.3333 44.1666 32.8583 44.1666 33.5C44.1666 34.1416 43.6416 34.6666 42.9999 34.6666Z" fill="white"/>
</g>
<defs>
<filter id="filter0_d_8_378" x="0" y="0" width="72" height="71" filterUnits="userSpaceOnUse" color-interpolation-filters="sRGB">
<feFlood flood-opacity="0" result="BackgroundImageFix"/>
<feColorMatrix in="SourceAlpha" type="matrix" values="0 0 0 0 0 0 0 0 0 0 0 0 0 0 0 0 0 0 127 0" result="hardAlpha"/>
<feOffset dy="2"/>
<feGaussianBlur stdDeviation="5"/>
<feComposite in2="hardAlpha" operator="out"/>
<feColorMatrix type="matrix" values="0 0 0 0 0.384314 0 0 0 0 0.235294 0 0 0 0 0.905882 0 0 0 0.5 0"/>
<feBlend mode="normal" in2="BackgroundImageFix" result="effect1_dropShadow_8_378"/>
<feBlend mode="normal" in="SourceGraphic" in2="effect1_dropShadow_8_378" result="shape"/>
</filter>
</defs>
</svg>
