<svg width="16" height="16" viewBox="0 0 16 16" fill="none" xmlns="http://www.w3.org/2000/svg">
<rect width="16" height="16" rx="2" fill="#623CE7"/>
<path d="M6.99068 11.1533C6.81398 11.1535 6.64445 11.0835 6.51935 10.9587L3.69135 8.13C3.62763 8.06855 3.57679 7.99502 3.5418 7.91371C3.5068 7.8324 3.48835 7.74493 3.48752 7.65641C3.48669 7.5679 3.50349 7.4801 3.53695 7.39814C3.57042 7.31619 3.61987 7.24172 3.68242 7.17908C3.74497 7.11644 3.81937 7.06689 3.90127 7.03331C3.98318 6.99973 4.07095 6.9828 4.15947 6.98351C4.24799 6.98421 4.33548 7.00254 4.41684 7.03742C4.4982 7.0723 4.5718 7.12304 4.63335 7.18667L6.99001 9.54333L11.2333 5.30133C11.3584 5.17624 11.5279 5.10593 11.7048 5.10587C11.8816 5.1058 12.0513 5.176 12.1763 5.301C12.3014 5.42601 12.3718 5.59558 12.3718 5.77243C12.3719 5.94928 12.3017 6.11891 12.1767 6.244L7.46201 10.9587C7.33691 11.0835 7.16738 11.1535 6.99068 11.1533Z" fill="white"/>
</svg>
