<svg width="30" height="30" viewBox="0 0 30 30" fill="none" xmlns="http://www.w3.org/2000/svg">
<g clip-path="url(#clip0_20_933)">
<path fill-rule="evenodd" clip-rule="evenodd" d="M15 16.7675L22.0713 23.8388C22.307 24.0664 22.6228 24.1924 22.9505 24.1896C23.2783 24.1867 23.5918 24.0553 23.8235 23.8235C24.0553 23.5918 24.1868 23.2782 24.1896 22.9505C24.1925 22.6228 24.0665 22.307 23.8388 22.0713L16.7675 15L23.8388 7.92875C24.0665 7.693 24.1925 7.37725 24.1896 7.0495C24.1868 6.72176 24.0553 6.40824 23.8235 6.17648C23.5918 5.94472 23.2783 5.81326 22.9505 5.81041C22.6228 5.80756 22.307 5.93356 22.0713 6.16125L15 13.2325L7.92877 6.16125C7.69196 5.93918 7.37804 5.81796 7.05344 5.82323C6.72883 5.8285 6.41901 5.95986 6.18954 6.1895C5.96006 6.41914 5.82892 6.72905 5.82388 7.05366C5.81884 7.37826 5.94029 7.6921 6.16252 7.92875L13.2325 15L6.16127 22.0713C6.04189 22.1866 5.94666 22.3245 5.88115 22.477C5.81564 22.6295 5.78115 22.7935 5.77971 22.9595C5.77827 23.1255 5.80989 23.2901 5.87275 23.4437C5.9356 23.5973 6.02841 23.7369 6.14578 23.8542C6.26315 23.9716 6.40271 24.0644 6.55633 24.1273C6.70995 24.1901 6.87455 24.2218 7.04052 24.2203C7.2065 24.2189 7.37052 24.1844 7.52303 24.1189C7.67553 24.0534 7.81346 23.9581 7.92877 23.8388L15 16.7675Z" fill="black"/>
</g>
<defs>
<clipPath id="clip0_20_933">
<rect width="30" height="30" fill="white"/>
</clipPath>
</defs>
</svg>
